<svg xmlns="http://www.w3.org/2000/svg" width="1051.693" height="188.581" viewBox="0 0 1051.693 188.581">
  <g id="logo-group" transform="translate(-287.949 -343.767)">
    <g id="logo-center" transform="translate(287.949 343.767)">
      <g id="title" transform="translate(0 0)">
        <g id="path324514" transform="translate(0 34.012)">
          <path id="Path_3" data-name="Path 3" d="M112.519,188.088c-24.235,0-41.826-15.539-41.826-36.946H97.85c0,9.515,13.168,9.79,14.67,9.79,13.393,0,16.967-6.5,16.967-10.335,0-3.625-5.828-5.94-18.89-9.755-15.114-4.417-37.956-11.089-37.956-35.21,0-18.964,16.485-32.728,39.2-32.728,26.614,0,43.148,13.623,43.148,35.555H127.832c0-2.3,0-8.4-15.991-8.4-4.857,0-12.044,1.771-12.044,5.571,0,3.2,5.938,5.5,18.415,9.143,15.3,4.472,38.431,11.228,38.431,35.822C156.642,169.228,141.486,188.088,112.519,188.088Z" transform="translate(-70.693 -72.904)" fill="#3576ed" stroke="#50b8fb" stroke-miterlimit="2" stroke-width="0"/>
        </g>
        <g id="path324516" transform="translate(114.937 37.252)">
          <path id="Path_4" data-name="Path 4" d="M122.057,72.9a57.652,57.652,0,0,0-57.587,57.587c0,.207.013.41.015.616h-.015v93.125H93.375V180.394A57.574,57.574,0,1,0,122.057,72.9Zm0,86.268a28.681,28.681,0,1,1,28.68-28.68A28.714,28.714,0,0,1,122.057,159.172Z" transform="translate(-64.469 -72.904)" fill="#3576ed" stroke="#50b8fb" stroke-miterlimit="2" stroke-width="0"/>
        </g>
        <g id="path324518" transform="translate(248.72 37.252)">
          <path id="Path_5" data-name="Path 5" d="M178.583,141.414a56.33,56.33,0,0,0,.134-21.124,57.524,57.524,0,1,0-2.4,29.552H143.228a28.658,28.658,0,0,1-47.675-8.428h83.03Zm-83.32-21.125a28.682,28.682,0,0,1,53.612,0Z" transform="translate(-64.467 -72.904)" fill="#3576ed" stroke="#50b8fb" stroke-miterlimit="2" stroke-width="0"/>
        </g>
        <g id="path324520" transform="translate(382.693 37.252)">
          <path id="Path_6" data-name="Path 6" d="M146.666,145.9h31.3a57.578,57.578,0,1,1,0-30.812h-31.3a28.678,28.678,0,1,0,0,30.812Z" transform="translate(-64.922 -72.916)" fill="#3576ed" stroke="#50b8fb" stroke-miterlimit="2" stroke-width="0"/>
        </g>
        <g id="path324522" transform="translate(516.654)">
          <path id="Path_7" data-name="Path 7" d="M129.652,174.892v27.16A51.711,51.711,0,0,1,78,150.4h0V60.889h27.16V97.548h23.964v25.071H105.16V150.4h0A24.518,24.518,0,0,0,129.652,174.892Z" transform="translate(-77.998 -60.889)" fill="#3576ed" stroke="#50b8fb" stroke-miterlimit="2" stroke-width="0"/>
        </g>
        <g id="path324524" transform="translate(594.531 37.252)">
          <path id="Path_8" data-name="Path 8" d="M128.265,73.085v28.8a21.114,21.114,0,0,0-21.091,21.09h0V185.62h-28.8V122.975h0A49.947,49.947,0,0,1,128.265,73.085Z" transform="translate(-78.373 -73.085)" fill="#3576ed" stroke="#50b8fb" stroke-miterlimit="2" stroke-width="0"/>
        </g>
        <g id="path324526" transform="translate(660.628 37.253)">
          <path id="Path_9" data-name="Path 9" d="M178.836,129.907a57.151,57.151,0,1,0-28.649,49.462v6.59h28.649V130.441h-.013C178.826,130.263,178.836,130.085,178.836,129.907Zm-57.072,28.426a28.426,28.426,0,1,1,28.425-28.427A28.461,28.461,0,0,1,121.764,158.334Z" transform="translate(-64.686 -72.833)" fill="#3576ed" stroke="#50b8fb" stroke-miterlimit="2" stroke-width="0"/>
        </g>
        <g id="path324528" transform="translate(797.248 0)">
          <path id="Path_10" data-name="Path 10" d="M179.676,151.884c0-.012,0-.023,0-.035V56.976H150.759v44.985a57.61,57.61,0,1,0,4.449,97v8.306h24.467V151.919C179.674,151.907,179.676,151.895,179.676,151.884Zm-57.611,28.692a28.692,28.692,0,1,1,28.693-28.708v.03A28.727,28.727,0,0,1,122.066,180.576Z" transform="translate(-64.46 -56.976)" fill="#3576ed" stroke="#50b8fb" stroke-miterlimit="2" stroke-width="0"/>
        </g>
        <g id="path324530" transform="translate(936.509 37.252)">
          <path id="Path_11" data-name="Path 11" d="M178.583,141.414a56.33,56.33,0,0,0,.134-21.124,57.524,57.524,0,1,0-2.4,29.552H143.228a28.658,28.658,0,0,1-47.675-8.428h83.03Zm-83.32-21.125a28.682,28.682,0,0,1,53.612,0Z" transform="translate(-64.467 -72.904)" fill="#3576ed" stroke="#50b8fb" stroke-miterlimit="2" stroke-width="0"/>
        </g>
      </g>
    </g>
  </g>
</svg>
