<?xml version="1.0" standalone="no"?>
<!DOCTYPE svg PUBLIC "-//W3C//DTD SVG 20010904//EN"
 "http://www.w3.org/TR/2001/REC-SVG-20010904/DTD/svg10.dtd">
<svg version="1.0" xmlns="http://www.w3.org/2000/svg"
 width="700.000000pt" height="700.000000pt" viewBox="0 0 700.000000 700.000000"
 preserveAspectRatio="xMidYMid meet">
<metadata>
Created by potrace 1.11, written by Peter Selinger 2001-2013
</metadata>
<g transform="translate(0.000000,700.000000) scale(0.100000,-0.100000)"
fill="#000000" stroke="none">
<path d="M3477 5974 c-1 -1 -58 -4 -127 -7 -69 -4 -134 -8 -145 -10 -11 -3
-42 -8 -70 -12 -624 -88 -1202 -426 -1590 -929 l-46 -60 536 -536 537 -537
-25 -74 c-118 -352 -27 -750 231 -1014 86 -89 174 -152 287 -206 152 -73 232
-91 410 -95 161 -4 230 6 358 51 l70 24 259 -257 c142 -141 258 -262 258 -267
0 -10 -40 -33 -150 -90 -168 -87 -379 -149 -578 -171 -267 -30 -576 10 -820
107 -349 138 -635 376 -837 693 -102 160 -204 423 -231 593 -3 21 -7 40 -9 43
-8 13 -19 177 -20 285 l0 120 -314 314 c-221 221 -316 309 -321 300 -15 -29
-60 -218 -79 -334 -44 -267 -45 -580 -1 -810 5 -27 11 -61 14 -75 20 -116 73
-296 128 -435 145 -365 377 -692 668 -945 41 -36 77 -68 80 -71 17 -19 212
-151 300 -203 102 -60 135 -77 269 -138 116 -52 378 -133 496 -153 143 -25
174 -29 275 -40 45 -5 352 -6 405 -1 87 8 180 18 185 21 3 2 26 6 50 10 117
17 383 92 500 142 412 175 734 416 1004 751 48 60 56 75 46 87 -7 8 -246 249
-532 535 l-520 520 25 78 c50 155 63 297 41 452 -60 421 -367 751 -787 844
-127 28 -322 25 -447 -7 -60 -15 -109 -31 -131 -43 -27 -13 -29 -11 -297 256
-186 186 -267 272 -259 278 81 63 372 189 502 218 164 36 278 49 430 48 205 0
366 -27 555 -91 571 -194 999 -677 1129 -1273 27 -126 35 -207 35 -367 l1
-133 312 -312 c172 -172 314 -310 317 -307 4 3 37 121 51 179 23 100 42 201
51 285 2 22 6 63 9 90 8 68 8 338 1 403 -3 28 -8 76 -11 105 -14 130 -72 383
-120 517 -98 274 -226 503 -413 737 -109 136 -295 320 -386 382 -12 8 -23 17
-26 20 -14 16 -124 94 -199 141 -77 47 -310 170 -325 170 -3 0 -25 8 -49 19
-23 10 -55 23 -72 29 -16 6 -39 14 -50 18 -11 4 -22 8 -25 9 -3 1 -36 11 -75
23 -82 25 -235 61 -285 68 -19 2 -60 9 -89 14 -30 6 -105 13 -165 16 -61 3
-130 7 -154 8 -23 1 -43 1 -45 0z m116 -2244 c93 -35 167 -141 167 -241 0 -88
-69 -192 -152 -232 -195 -92 -415 96 -355 304 43 147 196 223 340 169z"/>
</g>
</svg>
