<svg xmlns="http://www.w3.org/2000/svg" width="411" height="411" viewBox="0 0 411 411">
  <path id="Path_2" data-name="Path 2" d="M990.163,365H864.811a83.468,83.468,0,0,0-155.017,1h-63.13C660.5,301.227,718.161,252.5,787,252.5A143.231,143.231,0,0,1,896.191,303h74.03c-34-66.706-103.359-112.5-183.221-112.5-113.313,0-205.5,92.187-205.5,205.5a206.159,206.159,0,0,0,2.5,32H710.189a83.468,83.468,0,0,0,155.017-1h61.911C912.908,491.273,855.484,539.5,787,539.5A143.217,143.217,0,0,1,678.661,490H604.293C638.471,556.163,707.538,601.5,787,601.5c113.313,0,205.5-92.187,205.5-205.5A206.215,206.215,0,0,0,990.163,365ZM787.5,418A21.5,21.5,0,1,1,809,396.5,21.525,21.525,0,0,1,787.5,418Z" transform="translate(-581.5 -190.5)" fill="#ffffff"/>
</svg>
